<svg xmlns="http://www.w3.org/2000/svg" width="214" height="50" fill="none" viewBox="0 0 214 50" xmlns:xlink="http://www.w3.org/1999/xlink">
 <g clip-path="url(#clip0)">
  <path fill="#fff" d="M58.966 14.375h6.876v9.215h9.079v-9.215h6.868v24.628H74.92v-9.358h-9.087v9.358H58.96V14.375h.007zM87.74 26.757v-.068c0-7.07 5.611-12.81 13.261-12.81 7.651 0 13.187 5.664 13.187 12.735v.068c0 7.07-5.612 12.802-13.262 12.802-7.65.008-13.186-5.656-13.186-12.727zm19.437 0v-.068c0-3.55-2.46-6.65-6.243-6.65-3.754 0-6.138 3.024-6.138 6.582v.068c0 3.55 2.46 6.65 6.213 6.65 3.776 0 6.168-3.024 6.168-6.582zm13.277-12.382h6.875v18.648h11.359v5.98h-18.234V14.375zm21.686 12.382v-.068c0-7.176 5.559-12.81 13.074-12.81 5.062 0 8.327 2.114 10.523 5.138l-5.175 3.979c-1.414-1.76-3.046-2.889-5.416-2.889-3.468 0-5.912 2.919-5.912 6.507v.068c0 3.693 2.444 6.582 5.912 6.582 2.588 0 4.107-1.196 5.597-2.994l5.175 3.655c-2.339 3.205-5.491 5.56-10.982 5.56-7.094.007-12.796-5.371-12.796-12.728zm29.946-12.382h6.906v24.628h-6.906V14.375zm14.014 0h7.259l6.303 9.538 6.304-9.538h7.259v24.628h-6.838V24.598l-6.725 9.644h-.142l-6.695-9.569v14.33h-6.733V14.375h.008zM32.616 0c-6.582 0-12.23 4.212-13.75 10.704-.316 1.392-.534 3.182-.534 5.642v4.791h10.252V10.253h8.064v17.684c5.913-1.745 10.26-7.206 10.26-13.705C46.908 6.221 40.635 0 32.616 0zM14.164 49.255c6.59 0 12.36-4.212 13.879-10.704.316-1.391.534-3.182.534-5.641v-4.792H18.324v10.885H10.26V21.318C4.348 23.063 0 28.524 0 35.016c0 8.357 5.807 14.24 14.164 14.24z">
  </path>
 </g>
 <defs>
  <clipPath id="clip0">
   <path fill="#fff" d="M0 0H213.224V50H0z">
   </path>
  </clipPath>
 </defs>
</svg>